# Made in Blockbench 4.11.2
mtllib Boat.mtl

o cuboid
v -0.5000000000000001 0.5 -0.49999999999999994
v -0.49999999999999994 0.5 0.5000000000000001
v -0.06250000000000006 0 -0.5
v -0.06249999999999994 0 0.5
v -0.06249999999999986 0.5 1.125
v -0.007812499999999916 0 0.6875
v -0.2500000000000001 0.5 -0.875
v -0.031250000000000104 0 -0.875
v -0.37500000000000006 0.5 -0.44946808510638286
v -0.37499999999999994 0.5 0.46542553191489366
v -0.0468749999999999 0.5 0.765625
v -0.32812500000000006 0.5 -0.578125
v -0.10937500000000007 0.1875 -0.578125
v -0.12500000000000006 0.1875 -0.4494680851063829
v -0.12499999999999994 0.1875 0.4654255319148936
v -0.015624999999999906 0.1875 0.765625
v -0.125 0.21875 0.007981781914893642
v -0.0625 0 0.0000033430232557828335
v -0.5 0.5 0.0000033430232558364118
v -0.375 0.5 0.007981781914893672
v -0.12499999999999997 0.21875 0.23670365691489365
v -0.37499999999999994 0.5 0.23670365691489367
v -0.49999999999999994 0.5 0.25000167151162794
v -0.06249999999999997 0 0.2500016715116279
v -0.03124999999999999 0.21875 0.08610678191489363
v -0.03124999999999998 0.21875 0.15857865691489362
v -0.12500000000000003 0.21875 -0.22074315159574462
v -0.06250000000000003 0 -0.2499983284883721
v -0.5 0.5 -0.24999832848837206
v -0.375 0.5 -0.2207431515957446
v -0.12500000000000006 0.43692470017039897 -0.45792867071295806
v -0.12500000000000003 0.46817470017039897 -0.2292037372023198
v -0.12499999999999997 0.4212996849960607 0.24516435358471106
v -0.12499999999999994 0.39004968499606063 0.473886228584711
v 0.49999999999999994 0.5 -0.5000000000000001
v 0.5000000000000001 0.5 0.49999999999999994
v 0.06249999999999994 0 -0.5
v 0.06250000000000006 0 0.5
v 0.06250000000000014 0.5 1.125
v 0.007812500000000085 0 0.6875
v 0.2499999999999999 0.5 -0.875
v 0.031249999999999892 0 -0.875
v 0.37499999999999994 0.5 -0.449468085106383
v 0.37500000000000006 0.5 0.46542553191489355
v 0.0468750000000001 0.5 0.765625
v 0.32812499999999994 0.5 -0.578125
v 0.10937499999999993 0.1875 -0.578125
v 0.12499999999999994 0.1875 -0.4494680851063829
v 0.12500000000000006 0.1875 0.4654255319148936
v 0.015625000000000094 0.1875 0.765625
v 0.125 0.21875 0.00798178191489361
v 0.0625 0 0.000003343023255767525
v 0.5 0.5 0.000003343023255713947
v 0.375 0.5 0.007981781914893581
v 0.12500000000000003 0.21875 0.2367036569148936
v 0.37500000000000006 0.5 0.23670365691489356
v 0.5 0.5 0.25000167151162783
v 0.06250000000000003 0 0.2500016715116279
v 0.031250000000000014 0.21875 0.08610678191489363
v 0.03125000000000002 0.21875 0.15857865691489362
v 0.12499999999999997 0.21875 -0.22074315159574467
v 0.06249999999999997 0 -0.2499983284883721
v 0.49999999999999994 0.5 -0.24999832848837217
v 0.375 0.5 -0.2207431515957447
v 0.12499999999999994 0.43692470017039897 -0.45792867071295806
v 0.12499999999999997 0.46817470017039897 -0.22920373720231985
v 0.12500000000000003 0.4212996849960607 0.245164353584711
v 0.12500000000000006 0.39004968499606063 0.473886228584711
vt 0.0703125 0.46235000000000004
vt 0.0546875 0.46235000000000004
vt 0.03125 0.44281875000000004
vt 0.09375 0.44281875000000004
vt 0.03125 0.44281875000000004
vt 0.03125 0.38563749999999997
vt 0.09375 0.38563749999999997
vt 0.09375 0.44281875000000004
vt 0.09765625 0.859375
vt 0.15234375 0.859375
vt 0.15625 0.890625
vt 0.09375 0.890625
vt 0.10546875 0.65625
vt 0.16015625 0.65625
vt 0.21484375 0.734375
vt 0.05078125 0.734375
vt 0.20703125 0.57421875
vt 0.04296875 0.57421875
vt 0.0625 0.5
vt 0.1875 0.5
vt 0.1328125 0.734375
vt 0.1875 0.859375
vt 0.0625 0.859375
vt 0.1171875 0.734375
vt 0.0234375 0.546875
vt 0.0078125 0.546875
vt 0 0.453125
vt 0.03125 0.453125
vt 0.03125 0.32812343749999995
vt 0.03125 0.390625
vt 0 0.390625
vt 0 0.32812343749999995
vt 0 0.32812343749999995
vt 0 0.265625
vt 0.03125 0.265625
vt 0.03125 0.32812343749999995
vt 0.03125 0.203125
vt 0.03125 0.265625
vt 0 0.265625
vt 0 0.203125
vt 0.013671875 0.15625
vt 0.017578125 0.15625
vt 0.03125 0.203125
vt 0 0.203125
vt 0.23432233387830156 0.5081638806619906
vt 0.20317766612169844 0.5107275051139739
vt 0.20317766612169844 0.34407045305649797
vt 0.20707074959127383 0.34375
vt 0.11328125 0.91015625
vt 0.13671875 0.91015625
vt 0.140625 1
vt 0.109375 1
vt 0.3164644079272267 0.29648534670999305
vt 0.32423813597574225 0.2957079739051415
vt 0.3397855920727733 0.3726678815854453
vt 0.3164644079272267 0.375
vt 0.203125 0.6692005681744964
vt 0.1920083237770379 0.671875
vt 0.140625 0.6107199740275863
vt 0.203125 0.5893245194235566
vt 0.25 0.9375
vt 0.25 1
vt 0.1875 1
vt 0.1875 0.9375
vt 0.0546875 0.48046875
vt 0.0703125 0.48046875
vt 0.09375 0.5
vt 0.03125 0.5
vt 0.0703125 0.46235000000000004
vt 0.0703125 0.48046875
vt 0.0546875 0.48046875
vt 0.0546875 0.46235000000000004
vt 0.0625 0.9375
vt 0.0625 1
vt 0 1
vt 0 0.9375
vt 0 0.453125
vt 0 0.390625
vt 0.03125 0.390625
vt 0.03125 0.453125
vt 0.671875 0.609375
vt 0.609375 0.609375
vt 0.609375 0.578125
vt 0.671875 0.578125
vt 0.65625 0.5
vt 0.59375 0.5
vt 0.59375 0.46875
vt 0.65625 0.46875
vt 0.4748598638055749 0.8162374937849122
vt 0.5372554752971469 0.8126538704042803
vt 0.5467793717097553 0.9784774733137803
vt 0.4843837602181833 0.9820610966944121
vt 0.6448463438409415 0.796875
vt 0.78125 0.8926298734634838
vt 0.6091765431306129 0.9748937603403242
vt 0.5996841934275028 0.8096194272676956
vt 0.2605295860345742 0.9597690718246488
vt 0.25598896103457425 0.8234050093246488
vt 0.35006396103457427 0.8234050093246488
vt 0.35914677353457425 0.9815487593246488
vt 0.25 0.7187515625
vt 0.25 0.78125
vt 0.21875 0.7779265625
vt 0.21875 0.7207453125000001
vt 0.13671875 0.91015625
vt 0.21875 0.8351062499999999
vt 0.25 0.84375
vt 0.140625 1
vt 0.21875 0.6063828125
vt 0.20703125 0.57421875
vt 0.1875 0.5
vt 0.25 0.59375
vt 0.556827257799215 0.4937708373621563
vt 0.589134879269726 0.4913259253150306
vt 0.58974046881589 0.5866880603652729
vt 0.556827257799215 0.5936164536030286
vt 0.442464757799215 0.5936164536030286
vt 0.38528350779921505 0.5936164536030286
vt 0.38528350779921505 0.4995414536030286
vt 0.442464757799215 0.4995414536030286
vt 0.2497610656528916 0.4769861277989008
vt 0.3278689129994443 0.4937022702876458
vt 0.3283371362549626 0.59375
vt 0.23838453118410996 0.5429263662869404
vt 0.4843837602181833 0.9820610966944121
vt 0.42198502886804024 0.9856448992606925
vt 0.4124611324554318 0.8198212963511926
vt 0.4748598638055749 0.8162374937849122
vt 0.21875 0.7207453125000001
vt 0.21875 0.6635640625
vt 0.25 0.65625
vt 0.25 0.7187515625
vt 0.442464757799215 0.4995414536030286
vt 0.49964600779921503 0.4995414536030286
vt 0.49964600779921503 0.5936164536030286
vt 0.442464757799215 0.5936164536030286
vt 0.3278689129994443 0.4937022702876458
vt 0.38528350779921505 0.4995414536030286
vt 0.38528350779921505 0.5936155273303646
vt 0.3283365066281363 0.5936154643190147
vt 0.21875 0.8351062499999999
vt 0.21875 0.7779265625
vt 0.25 0.78125
vt 0.25 0.84375
vt 0.6091765431306129 0.9748937603403242
vt 0.5467793717097553 0.9784774733137803
vt 0.5372554752971469 0.8126538704042803
vt 0.5996526467180044 0.8090701574308241
vt 0.0703125 0.48046875
vt 0.0703125 0.46235000000000004
vt 0.09375 0.44281875000000004
vt 0.09375 0.5
vt 0.35006396103457427 0.8234050093246488
vt 0.4124611324554318 0.8198212963511926
vt 0.42198502886804024 0.9856448992606925
vt 0.3595878574471827 0.9892286122341487
vt 0.25 0.59375
vt 0.25 0.65625
vt 0.21875 0.6635640625
vt 0.21875 0.6063828125
vt 0.556827257799215 0.5936164536030286
vt 0.49964600779921503 0.5936164536030286
vt 0.49964600779921503 0.4995414536030286
vt 0.556827257799215 0.4937023911030286
vt 0.15491358126476915 0.375
vt 0.09720109987804917 0.375
vt 0.09508641873523085 0.34375
vt 0.15279890012195083 0.34375
vt 0.46077544744837706 0.78125
vt 0.4840252085679855 0.8020237812464577
vt 0.5548495525516229 0.78125
vt 0.35307723635799937 0.78125
vt 0.453125 0.78125
vt 0.3773659574946422 0.8007965690713348
vt 0.2562404791130759 0.8125
vt 0.25 0.75
vt 0.32823899998187644 0.75
vt 0.3297853841859047 0.8119469484189887
vt 0.6875 1
vt 0.625 1
vt 0.625 0.96875
vt 0.6875 0.96875
vt 0.1875 0.44228751861328
vt 0.1875 0.5
vt 0.15625 0.49788377073966916
vt 0.15625 0.44017283747046165
vt 0.09375 0.375
vt 0.03125 0.375
vt 0.03125 0.34375
vt 0.09375 0.34375
vt 0.12464985186712219 0.40625
vt 0.10139986219018285 0.3854764745549354
vt 0.19547513780981715 0.3854764745549354
vt 0.1875 0.8344237362318088
vt 0.18750000000000003 0.734375
vt 0.20704564306215906 0.7586644548131223
vt 0.09375 0.42040178549926277
vt 0.15625 0.42618934495717054
vt 0.15625 0.5
vt 0.0943944460469248 0.49836112307200564
vt 0.5467793717097553 0.9784774733137803
vt 0.5372554752971469 0.8126538704042803
vt 0.4748598638055749 0.8162374937849122
vt 0.4843837602181833 0.9820610966944121
vt 0.6091765431306129 0.9748937603403242
vt 0.78125 0.8926298734634838
vt 0.6448463438409415 0.796875
vt 0.5996841934275028 0.8096194272676956
vt 0.35006396103457427 0.8234050093246488
vt 0.25598896103457425 0.8234050093246488
vt 0.2605295860345742 0.9597690718246488
vt 0.35914677353457425 0.9815487593246488
vt 0.21875 0.7779265625
vt 0.25 0.78125
vt 0.25 0.7187515625
vt 0.21875 0.7207453125000001
vt 0.25 0.84375
vt 0.21875 0.8351062499999999
vt 0.13671875 0.91015625
vt 0.140625 1
vt 0.1875 0.5
vt 0.20703125 0.57421875
vt 0.21875 0.6063828125
vt 0.25 0.59375
vt 0.58974046881589 0.5866880603652729
vt 0.589134879269726 0.4913259253150306
vt 0.556827257799215 0.4937708373621563
vt 0.556827257799215 0.5936164536030286
vt 0.38528350779921505 0.4995414536030286
vt 0.38528350779921505 0.5936164536030286
vt 0.442464757799215 0.5936164536030286
vt 0.442464757799215 0.4995414536030286
vt 0.3283371362549626 0.59375
vt 0.3278689129994443 0.4937022702876458
vt 0.2497610656528916 0.4769861277989008
vt 0.23838453118410996 0.5429263662869404
vt 0.4124611324554318 0.8198212963511926
vt 0.42198502886804024 0.9856448992606925
vt 0.4843837602181833 0.9820610966944121
vt 0.4748598638055749 0.8162374937849122
vt 0.25 0.65625
vt 0.21875 0.6635640625
vt 0.21875 0.7207453125000001
vt 0.25 0.7187515625
vt 0.49964600779921503 0.5936164536030286
vt 0.49964600779921503 0.4995414536030286
vt 0.442464757799215 0.4995414536030286
vt 0.442464757799215 0.5936164536030286
vt 0.38528350779921505 0.5936155273303646
vt 0.38528350779921505 0.4995414536030286
vt 0.3278689129994443 0.4937022702876458
vt 0.3283365066281363 0.5936154643190147
vt 0.25 0.78125
vt 0.21875 0.7779265625
vt 0.21875 0.8351062499999999
vt 0.25 0.84375
vt 0.5372554752971469 0.8126538704042803
vt 0.5467793717097553 0.9784774733137803
vt 0.6091765431306129 0.9748937603403242
vt 0.5996526467180044 0.8090701574308241
vt 0.09375 0.44281875000000004
vt 0.0703125 0.46235000000000004
vt 0.0703125 0.48046875
vt 0.09375 0.5
vt 0.42198502886804024 0.9856448992606925
vt 0.4124611324554318 0.8198212963511926
vt 0.35006396103457427 0.8234050093246488
vt 0.3595878574471827 0.9892286122341487
vt 0.21875 0.6635640625
vt 0.25 0.65625
vt 0.25 0.59375
vt 0.21875 0.6063828125
vt 0.49964600779921503 0.4995414536030286
vt 0.49964600779921503 0.5936164536030286
vt 0.556827257799215 0.5936164536030286
vt 0.556827257799215 0.4937023911030286
vt 0.09508641873523085 0.34375
vt 0.09720109987804917 0.375
vt 0.15491358126476915 0.375
vt 0.15279890012195083 0.34375
vt 0.4840252085679855 0.8020237812464577
vt 0.46077544744837706 0.78125
vt 0.5548495525516229 0.78125
vt 0.453125 0.78125
vt 0.35307723635799937 0.78125
vt 0.3773659574946422 0.8007965690713348
vt 0.32823899998187644 0.75
vt 0.25 0.75
vt 0.2562404791130759 0.8125
vt 0.3297853841859047 0.8119469484189887
vt 0.15625 0.49788377073966916
vt 0.1875 0.5
vt 0.1875 0.44228751861328
vt 0.15625 0.44017283747046165
vt 0.10139986219018285 0.3854764745549354
vt 0.12464985186712219 0.40625
vt 0.19547513780981715 0.3854764745549354
vt 0.18750000000000003 0.734375
vt 0.1875 0.8344237362318088
vt 0.20704564306215906 0.7586644548131223
vt 0.15625 0.5
vt 0.15625 0.42618934495717054
vt 0.09375 0.42040178549926277
vt 0.0943944460469248 0.49836112307200564
vn 0 1 0
vn 0 1 0
vn 0 1 0
vn 1.2246467991473532e-16 0 1
vn 0 1 0
vn -1.2246467991473532e-16 0 -1
vn 0 -1 0
vn 0 -1 0
vn 0 -1 0
vn 0 -1 0
vn 0 -1 0
vn 9.216406402856728e-17 -0.658504607868518 0.7525766947068778
vn 0 1 0
vn -1.2246467991473532e-16 0 -1
vn 0 1 0
vn 1.6578184152397744e-17 0.9907949599369706 0.13537114671707892
vn 0 1 0
vn 0 1 0
vn -1.657796653120712e-17 0.9907952027263839 -0.13536936970520272
vn 0 -1 0
vn 1.223942871193618e-16 0.033900902554822074 0.9994251992050073
vn -1.223942871193618e-16 -0.03390090255482196 -0.9994251992050073
vn -0.7525766947068778 -0.658504607868518 9.216406402856728e-17
vn -0.7051520736801029 -0.5090316531878244 0.4936064515760722
vn -0.9134989112062925 -0.39965577365275295 -0.07612490926719093
vn 0 1 0
vn 0 1 0
vn 0 1 0
vn 0.8152070247131558 0.5706449172992091 0.09900447070159758
vn 0.7474093186836597 0.6643638388299198 -9.153124297788479e-17
vn 0.751063982394753 0.6008511859158024 -0.27364346645390236
vn -0.7525766947068778 -0.658504607868518 9.216406402856728e-17
vn 0 1 0
vn 0.7474093186836597 0.6643638388299198 -9.153124297788479e-17
vn 0.7443491071059212 0.6616436507608188 0.09039959158377643
vn 0 1 0
vn -0.7525766947068778 -0.658504607868518 9.216406402856728e-17
vn 0 1 0
vn -0.7525766947068778 -0.658504607868518 9.216406402856728e-17
vn 0 1 0
vn 0.7474093186836597 0.6643638388299198 -9.153124297788479e-17
vn -1 0 1.2246467991473532e-16
vn 0.038110808476978356 0.03387627420175843 0.9986991360381956
vn -0.04233813118576109 -0.03387050494860877 -0.9985290539299413
vn 0.23832649208759246 0.9622455302385543 -0.13146871378828592
vn -1.2235798048609794e-16 0.041734575615686095 -0.9991287330460368
vn -1 0 1.2246467991473532e-16
vn 1.2235798048609794e-16 -0.04173457561568611 0.9991287330460368
vn 0.046899732349067406 0.04168865097694891 -0.9980292939013906
vn -0.05209737558143871 -0.04167790046515107 0.9977719258780254
vn 0.2937626204908149 0.9470795047723108 0.1293983556410368
vn 0.7525766947068778 -0.658504607868518 -9.216406402856728e-17
vn 0.7051520736801031 -0.5090316531878244 0.49360645157607197
vn 0.9134989112062925 -0.39965577365275295 -0.07612490926719115
vn 0 1 0
vn 0 1 0
vn 0 1 0
vn -0.8152070247131558 0.570644917299209 0.09900447070159778
vn -0.7474093186836597 0.6643638388299198 9.153124297788479e-17
vn -0.7510639823947532 0.6008511859158026 -0.2736434664539022
vn 0.7525766947068778 -0.658504607868518 -9.216406402856728e-17
vn 0 1 0
vn -0.7474093186836597 0.6643638388299198 9.153124297788479e-17
vn -0.7443491071059212 0.6616436507608188 0.09039959158377663
vn 0 1 0
vn 0.7525766947068778 -0.658504607868518 -9.216406402856728e-17
vn 0 1 0
vn 0.7525766947068778 -0.658504607868518 -9.216406402856728e-17
vn 0 1 0
vn -0.7474093186836597 0.6643638388299198 9.153124297788479e-17
vn 1 0 -1.2246467991473532e-16
vn -0.038110808476978106 0.03387627420175843 0.9986991360381956
vn 0.04233813118576084 -0.03387050494860877 -0.9985290539299413
vn -0.2383264920875925 0.9622455302385543 -0.13146871378828587
vn 1 0 -1.2246467991473532e-16
vn -0.04689973234906764 0.041688650976948904 -0.9980292939013904
vn 0.05209737558143895 -0.04167790046515106 0.9977719258780252
vn -0.2937626204908149 0.9470795047723108 0.12939835564103686
usemtl m_2b8f9a90-9aee-8db3-f069-4f94900f31a1
f 25/1/1 59/2/1 51/3/1 17/4/1
f 51/5/2 61/6/2 27/7/2 17/8/2
f 47/9/3 13/10/3 14/11/3 48/12/3
f 13/13/4 47/14/4 46/15/4 12/16/4
f 12/17/5 46/18/5 41/19/5 7/20/5
f 8/21/6 7/22/6 41/23/6 42/24/6
f 8/25/7 42/26/7 37/27/7 3/28/7
f 18/29/8 28/30/8 62/31/8 52/32/8
f 52/33/9 58/34/9 24/35/9 18/36/9
f 4/37/10 24/38/10 58/39/10 38/40/10
f 40/41/11 6/42/11 4/43/11 38/44/11
f 39/45/12 5/46/12 6/47/12 40/48/12
f 45/49/13 11/50/13 5/51/13 39/52/13
f 50/53/14 16/54/14 11/55/14 45/56/14
f 16/57/15 50/58/15 49/59/15 15/60/15
f 68/61/16 67/62/16 33/63/16 34/64/16
f 60/65/17 26/66/17 21/67/17 55/68/17
f 25/69/18 26/70/18 60/71/18 59/72/18
f 31/73/19 32/74/19 66/75/19 65/76/19
f 37/77/20 62/78/20 28/79/20 3/80/20
f 66/81/21 32/82/21 27/83/21 61/84/21
f 31/85/22 65/86/22 48/87/22 14/88/22
f 18/89/23 24/90/23 23/91/23 19/92/23
f 6/93/24 5/94/24 2/95/24 4/96/24
f 7/97/25 8/98/25 3/99/25 1/100/25
f 19/101/26 23/102/26 22/103/26 20/104/26
f 11/105/27 10/106/27 2/107/27 5/108/27
f 9/109/28 12/110/28 7/111/28 1/112/28
f 14/113/29 13/114/29 12/115/29 9/116/29
f 20/117/30 22/118/30 21/119/30 17/120/30
f 16/121/31 15/122/31 10/123/31 11/124/31
f 19/125/32 29/126/32 28/127/32 18/128/32
f 20/129/33 30/130/33 29/131/33 19/132/33
f 17/133/34 27/134/34 30/135/34 20/136/34
f 15/137/35 21/138/35 22/139/35 10/140/35
f 10/141/36 22/142/36 23/143/36 2/144/36
f 2/145/37 23/146/37 24/147/37 4/148/37
f 26/149/38 25/150/38 17/151/38 21/152/38
f 3/153/39 28/154/39 29/155/39 1/156/39
f 1/157/40 29/158/40 30/159/40 9/160/40
f 9/161/41 30/162/41 27/163/41 14/164/41
f 32/165/42 31/166/42 14/167/42 27/168/42
f 27/169/43 32/170/43 30/171/43
f 14/172/44 9/173/44 31/174/44
f 32/175/45 31/176/45 9/177/45 30/178/45
f 33/179/46 67/180/46 55/181/46 21/182/46
f 34/183/47 33/184/47 21/185/47 15/186/47
f 68/187/48 34/188/48 15/189/48 49/190/48
f 33/191/49 21/192/49 22/193/49
f 10/194/50 15/195/50 34/196/50
f 34/197/51 33/198/51 22/199/51 10/200/51
f 57/201/52 58/202/52 52/203/52 53/204/52
f 36/205/53 39/206/53 40/207/53 38/208/53
f 37/209/54 42/210/54 41/211/54 35/212/54
f 56/213/55 57/214/55 53/215/55 54/216/55
f 36/217/56 44/218/56 45/219/56 39/220/56
f 41/221/57 46/222/57 43/223/57 35/224/57
f 46/225/58 47/226/58 48/227/58 43/228/58
f 55/229/59 56/230/59 54/231/59 51/232/59
f 44/233/60 49/234/60 50/235/60 45/236/60
f 62/237/61 63/238/61 53/239/61 52/240/61
f 63/241/62 64/242/62 54/243/62 53/244/62
f 64/245/63 61/246/63 51/247/63 54/248/63
f 56/249/64 55/250/64 49/251/64 44/252/64
f 57/253/65 56/254/65 44/255/65 36/256/65
f 58/257/66 57/258/66 36/259/66 38/260/66
f 51/261/67 59/262/67 60/263/67 55/264/67
f 63/265/68 62/266/68 37/267/68 35/268/68
f 64/269/69 63/270/69 35/271/69 43/272/69
f 61/273/70 64/274/70 43/275/70 48/276/70
f 48/277/71 65/278/71 66/279/71 61/280/71
f 66/281/72 61/282/72 64/283/72
f 43/284/73 48/285/73 65/286/73
f 43/287/74 65/288/74 66/289/74 64/290/74
f 55/291/75 67/292/75 68/293/75 49/294/75
f 55/295/76 67/296/76 56/297/76
f 49/298/77 44/299/77 68/300/77
f 56/301/78 67/302/78 68/303/78 44/304/78