# Made in Blockbench 4.11.2
mtllib Bush.mtl

o cuboid
v 0.0625 0.125 0.0625
v 0.0625 0.125 -0.0625
v 0.0625 0 0.0625
v 0.0625 0 -0.0625
v -0.0625 0.125 0.0625
v -0.0625 0.125 -0.0625
v -0.0625 0 0.0625
v -0.0625 0 -0.0625
v 0.4375 0.5 0.3125
v 0.4375 0.375 0.3125
v 0.4375 0.5 -0.3125
v 0.4375 0.375 -0.3125
v 0.875 0.25 0.125
v 0.875 0.125 0.125
v 0.875 0.25 -0.125
v 0.875 0.125 -0.125
v 0.375 0.375 0.4375
v -0.375 0.375 0.4375
v 0.375 0.25 0.4375
v -0.375 0.25 0.4375
v 0.125 0.1875 0.75
v -0.125 0.1875 0.75
v 0.125 0.0625 0.75
v -0.125 0.0625 0.75
v -0.375 0.5 0.3125
v -0.375 0.5 -0.3125
v -0.375 0.375 0.3125
v -0.375 0.375 -0.3125
v -0.625 0.25 0.1875
v -0.625 0.25 -0.1875
v -0.625 0.125 0.1875
v -0.625 0.125 -0.1875
v 0.375 0.4375 -0.4375
v 0.375 0.3125 -0.4375
v -0.375 0.4375 -0.4375
v -0.375 0.3125 -0.4375
v 0.1875 0.125 -0.8125
v 0.1875 0 -0.8125
v -0.1875 0.125 -0.8125
v -0.1875 0 -0.8125
vt 0.21875 0.734375
vt 0.15625 0.734375
vt 0.15625 0.703125
vt 0.21875 0.703125
vt 0.390625 0.84375
vt 0.390625 0.875
vt 0.296875 0.875
vt 0.296875 0.84375
vt 0.07812500000000001 0.96875
vt 0.10937500000000001 0.96875
vt 0.10937500000000001 1
vt 0.07812500000000001 1
vt 0.265625 0.84375
vt 0.265625 0.875
vt 0.234375 0.875
vt 0.234375 0.84375
vt 0.40625 0.515625
vt 0.40625 0.546875
vt 0.34375 0.546875
vt 0.34375 0.515625
vt 0.765625 0.875
vt 0.671875 0.875
vt 0.671875 0.84375
vt 0.765625 0.84375
vt 0.546875 0.625
vt 0.390625 0.625
vt 0.453125 0.5
vt 0.484375 0.5
vt 0.6778254618552042 0.96875
vt 0.6978130331916269 1
vt 0.5512375713364227 1
vt 0.53125 0.96875
vt 0.15625 0.546875
vt 0 0.546875
vt 0.0625 0.421875
vt 0.09375 0.421875
vt 0.171875 0.453125
vt 0.140625 0.4331374286635773
vt 0.140625 0.2865619668083731
vt 0.171875 0.3065495381447958
vt 0.21875 0.421875
vt 0.28125 0.421875
vt 0.328125 0.546875
vt 0.171875 0.546875
vt 0.09375 0.25730738105038464
vt 0.125 0.2718382956742025
vt 0.125 0.40625
vt 0.09375 0.3917190853761823
vt 0.5625 0.8125
vt 0.625 0.8125
vt 0.671875 0.9375
vt 0.515625 0.9375
vt 0.5457809146238177 0.375
vt 0.53125 0.34375
vt 0.6656617043257975 0.34375
vt 0.6801926189496152 0.375
vt 0.34375 0.421875
vt 0.3125 0.40763000065568133
vt 0.3125 0.27052048223517233
vt 0.34375 0.284765481579491
vt 0 0.8560765625
vt 0.1875 0.8560765625
vt 0.10937500000000001 0.96875
vt 0.07812500000000001 0.96875
vt 0.6576300006556813 0.390625
vt 0.671875 0.421875
vt 0.534765481579491 0.421875
vt 0.5205204822351723 0.390625
vt 0.34375 0.9876734375
vt 0.15625 0.9876734375
vt 0.234375 0.875
vt 0.265625 0.875
vt 0.4207649083758745 0.828125
vt 0.4075066150761463 0.796875
vt 0.5179917067002717 0.796875
vt 0.53125 0.828125
vt 0.390625 0.390625
vt 0.453125 0.390625
vt 0.515625 0.484375
vt 0.328125 0.484375
vt 0.1875 0.2825066150761463
vt 0.21875 0.29576490837587455
vt 0.21875 0.40625
vt 0.1875 0.3929917067002717
vt 0.59375 0.59375
vt 0.65625 0.59375
vt 0.71875 0.6875
vt 0.53125 0.6875
vt 0.25 0.40625
vt 0.234375 0.38488234884685735
vt 0.234375 0.24777380663962867
vt 0.25 0.2691414577927713
vt 0.515625 1
vt 0.359375 1
vt 0.421875 0.875
vt 0.453125 0.875
vt 0.7933585422072287 0.8125
vt 0.8147261933603713 0.828125
vt 0.6776176511531427 0.828125
vt 0.65625 0.8125
vt 0.546875 0.78125
vt 0.390625 0.78125
vt 0.453125 0.65625
vt 0.484375 0.65625
vt 0.3802084263866188 0.328125
vt 0.359375 0.3125
vt 0.45312458126208566 0.3125
vt 0.4739580076487045 0.328125
vt 0.5625 0.4375
vt 0.65625 0.4375
vt 0.6875 0.53125
vt 0.53125 0.53125
vt 0.265625 0.29166699235129556
vt 0.28125 0.31250041873791434
vt 0.28125 0.40625
vt 0.265625 0.3854165736133812
vt 0.59375 0.703125
vt 0.6875 0.703125
vt 0.71875 0.796875
vt 0.5625 0.796875
vt 0.1875 0.828125
vt 0 0.828125
vt 0.078125 0.703125
vt 0.109375 0.703125
vt 0.7019012061906724 0.546875
vt 0.71875 0.578125
vt 0.5738490487729501 0.578125
vt 0.5570002549636224 0.546875
vt 0.390625 0.828125
vt 0.203125 0.828125
vt 0.28125 0.703125
vt 0.3125 0.703125
vt 0.03125 0.4375
vt 0 0.4206512061906724
vt 0 0.2757502549636224
vt 0.03125 0.29259904877295007
vt 0.046875 0.5625
vt 0.140625 0.5625
vt 0.1875 0.6875
vt 0 0.6875
vt 0.046875 0.25684646606105976
vt 0.078125 0.2755219201198893
vt 0.078125 0.40625
vt 0.046875 0.38757454594117047
vt 0.25 0.5625
vt 0.34375 0.5625
vt 0.390625 0.6875
vt 0.203125 0.6875
vt 0.3848969201198892 0.375
vt 0.3662214660610597 0.34375
vt 0.49694954594117047 0.34375
vt 0.515625 0.375
vn 1 0 0
vn -1 0 0
vn 0 1 0
vn 0 -1 0
vn 0 0 1
vn 0 0 -1
vn -0.7071067811865476 0.7071067811865476 0
vn -0.5547001962252291 0 0.8320502943378437
vn 0.7071067811865476 -0.7071067811865476 0
vn -0.5547001962252291 0 -0.8320502943378437
vn 0.49613893835683387 0.8682431421244593 0
vn 0.39391929857916774 0 0.919145030018058
vn -0.49613893835683387 -0.8682431421244593 0
vn 0.39391929857916774 0 -0.919145030018058
vn 0.7682212795973759 0 -0.6401843996644799
vn 0 0.8320502943378438 -0.5547001962252291
vn -0.7682212795973759 0 -0.6401843996644799
vn 0 -0.8320502943378438 0.5547001962252291
vn 0.7808688094430304 0 0.6246950475544243
vn 0 0.8574929257125443 0.5144957554275266
vn -0.7808688094430304 0 0.6246950475544243
vn 0 -0.8574929257125443 -0.5144957554275266
vn 0.6246950475544243 0 0.7808688094430304
vn 0.7682212795973759 0.6401843996644799 0
vn 0.6246950475544243 0 -0.7808688094430304
vn -0.7682212795973759 -0.6401843996644799 0
vn -0.44721359549995804 0 0.8944271909999161
vn -0.7071067811865476 0.7071067811865476 0
vn -0.44721359549995804 0 -0.8944271909999161
vn 0.7071067811865476 -0.7071067811865476 0
vn 0 0.7682212795973759 0.6401843996644799
vn 0.7682212795973759 0 0.6401843996644799
vn 0 -0.7682212795973759 -0.6401843996644799
vn -0.7682212795973759 0 0.6401843996644799
vn 0 0.7682212795973759 -0.6401843996644799
vn 0.8944271909999161 0 -0.44721359549995804
vn 0 -0.7682212795973759 0.6401843996644799
vn -0.8944271909999161 0 -0.44721359549995804
usemtl m_57b0ea34-a5f2-4d7e-5808-ba5eb8dfb662
f 15/1/1 13/2/1 14/3/1 16/4/1
f 31/5/2 29/6/2 30/7/2 32/8/2
f 5/9/3 1/10/3 2/11/3 6/12/3
f 4/13/4 3/14/4 7/15/4 8/16/4
f 23/17/5 21/18/5 22/19/5 24/20/5
f 39/21/6 37/22/6 38/23/6 40/24/6
f 9/25/7 11/26/7 2/27/7 1/28/7
f 10/29/8 9/30/8 1/31/8 3/32/8
f 12/33/9 10/34/9 3/35/9 4/36/9
f 11/37/10 12/38/10 4/39/10 2/40/10
f 13/41/11 15/42/11 11/43/11 9/44/11
f 14/45/12 13/46/12 9/47/12 10/48/12
f 16/49/13 14/50/13 10/51/13 12/52/13
f 15/53/14 16/54/14 12/55/14 11/56/14
f 17/57/15 19/58/15 3/59/15 1/60/15
f 18/61/16 17/62/16 1/63/16 5/64/16
f 20/65/17 18/66/17 5/67/17 7/68/17
f 19/69/18 20/70/18 7/71/18 3/72/18
f 21/73/19 23/74/19 19/75/19 17/76/19
f 22/77/20 21/78/20 17/79/20 18/80/20
f 24/81/21 22/82/21 18/83/21 20/84/21
f 23/85/22 24/86/22 20/87/22 19/88/22
f 25/89/23 27/90/23 7/91/23 5/92/23
f 26/93/24 25/94/24 5/95/24 6/96/24
f 28/97/25 26/98/25 6/99/25 8/100/25
f 27/101/26 28/102/26 8/103/26 7/104/26
f 29/105/27 31/106/27 27/107/27 25/108/27
f 30/109/28 29/110/28 25/111/28 26/112/28
f 32/113/29 30/114/29 26/115/29 28/116/29
f 31/117/30 32/118/30 28/119/30 27/120/30
f 33/121/31 35/122/31 6/123/31 2/124/31
f 34/125/32 33/126/32 2/127/32 4/128/32
f 36/129/33 34/130/33 4/131/33 8/132/33
f 35/133/34 36/134/34 8/135/34 6/136/34
f 37/137/35 39/138/35 35/139/35 33/140/35
f 38/141/36 37/142/36 33/143/36 34/144/36
f 40/145/37 38/146/37 34/147/37 36/148/37
f 39/149/38 40/150/38 36/151/38 35/152/38