# Made in Blockbench 4.11.2
mtllib SailBoat.mtl

o cuboid
v -0.5000000000000001 0.5 -0.49999999999999994
v -0.49999999999999994 0.5 0.5000000000000001
v -0.06250000000000006 0 -0.5
v -0.06249999999999994 0 0.5
v -0.06249999999999986 0.5 1.125
v -0.007812499999999916 0 0.6875
v -0.2500000000000001 0.5 -0.875
v -0.031250000000000104 0 -0.875
v -0.37500000000000006 0.5 -0.44946808510638286
v -0.37499999999999994 0.5 0.46542553191489366
v -0.0468749999999999 0.5 0.765625
v -0.32812500000000006 0.5 -0.578125
v -0.10937500000000007 0.1875 -0.578125
v -0.12500000000000006 0.1875 -0.4494680851063829
v -0.12499999999999994 0.1875 0.4654255319148936
v -0.015624999999999906 0.1875 0.765625
v -0.125 0.21875 0.007981781914893642
v -0.0625 0 0.0000033430232557828335
v -0.5 0.5 0.0000033430232558364118
v -0.375 0.5 0.007981781914893672
v -0.12499999999999997 0.21875 0.23670365691489365
v -0.37499999999999994 0.5 0.23670365691489367
v -0.49999999999999994 0.5 0.25000167151162794
v -0.06249999999999997 0 0.2500016715116279
v -0.03124999999999999 0.21875 0.08610678191489363
v -0.03124999999999998 0.21875 0.15857865691489362
v -0.12500000000000003 0.21875 -0.22074315159574462
v -0.06250000000000003 0 -0.2499983284883721
v -0.5 0.5 -0.24999832848837206
v -0.375 0.5 -0.2207431515957446
v -0.12500000000000006 0.43692470017039897 -0.45792867071295806
v -0.12500000000000003 0.46817470017039897 -0.2292037372023198
v -0.12499999999999997 0.4212996849960607 0.24516435358471106
v -0.12499999999999994 0.39004968499606063 0.473886228584711
v 0.49999999999999994 0.5 -0.5000000000000001
v 0.5000000000000001 0.5 0.49999999999999994
v 0.06249999999999994 0 -0.5
v 0.06250000000000006 0 0.5
v 0.06250000000000014 0.5 1.125
v 0.007812500000000085 0 0.6875
v 0.2499999999999999 0.5 -0.875
v 0.031249999999999892 0 -0.875
v 0.37499999999999994 0.5 -0.449468085106383
v 0.37500000000000006 0.5 0.46542553191489355
v 0.0468750000000001 0.5 0.765625
v 0.32812499999999994 0.5 -0.578125
v 0.10937499999999993 0.1875 -0.578125
v 0.12499999999999994 0.1875 -0.4494680851063829
v 0.12500000000000006 0.1875 0.4654255319148936
v 0.015625000000000094 0.1875 0.765625
v 0.125 0.21875 0.00798178191489361
v 0.0625 0 0.000003343023255767525
v 0.5 0.5 0.000003343023255713947
v 0.375 0.5 0.007981781914893581
v 0.12500000000000003 0.21875 0.2367036569148936
v 0.37500000000000006 0.5 0.23670365691489356
v 0.5 0.5 0.25000167151162783
v 0.06250000000000003 0 0.2500016715116279
v 0.031250000000000014 0.21875 0.08610678191489363
v 0.03125000000000002 0.21875 0.15857865691489362
v 0.12499999999999997 0.21875 -0.22074315159574467
v 0.06249999999999997 0 -0.2499983284883721
v 0.49999999999999994 0.5 -0.24999832848837217
v 0.375 0.5 -0.2207431515957447
v 0.12499999999999994 0.43692470017039897 -0.45792867071295806
v 0.12499999999999997 0.46817470017039897 -0.22920373720231985
v 0.12500000000000003 0.4212996849960607 0.245164353584711
v 0.12500000000000006 0.39004968499606063 0.473886228584711
v -0.031249999999999986 2.34375 0.12234271941489362
v 0.031250000000000014 2.34375 0.12234271941489362
v -0.03124999999999998 1.03125 0.15857865691489362
v 0.03125000000000002 1.03125 0.15857865691489362
v 0.031250000000000014 1.03125 0.08610678191489363
v -0.03124999999999999 1.03125 0.08610678191489363
v -0.031249999999999896 1.09375 0.8460786569148935
v -0.031249999999999896 1.03125 0.8460786569148935
v 0.031250000000000104 1.03125 0.8460786569148935
v 0.031250000000000104 1.09375 0.8460786569148935
v 0.03124999999999992 1.09375 -0.6638932180851064
v 0.03124999999999992 1.03125 -0.6638932180851064
v -0.03125000000000008 1.03125 -0.6638932180851064
v -0.03125000000000008 1.09375 -0.6638932180851064
v -0.031250000000000035 1.5312487256227172 -0.25764433316522894
v 0.03124999999999997 1.5312487256227172 -0.25764433316522894
v 0.031249999999999983 1.03125 -0.1326443331652289
v -0.031250000000000014 1.03125 -0.1326443331652289
v 0.031250000000000076 1.71875 0.5960786569148936
v 0.031250000000000056 1.03125 0.4710786569148936
v -0.03124999999999994 1.03125 0.4710786569148936
v -0.031249999999999927 1.71875 0.5960786569148936
v 0.031249999999999986 1.7499993628113586 -0.11701877562516766
v -0.031250000000000014 1.7499993628113586 -0.11701877562516766
v -0.03125 1.03125 -0.023268775625167628
v 0.031249999999999997 1.03125 -0.023268775625167635
vt 0.01953125 0.918675
vt 0.01171875 0.918675
vt 0 0.908909375
vt 0.03125 0.908909375
vt 0 0.908909375
vt 0 0.88031875
vt 0.03125 0.88031875
vt 0.03125 0.908909375
vt 0.173828125 0.984375
vt 0.201171875 0.984375
vt 0.203125 1
vt 0.171875 1
vt 0.029296875 0.7890625
vt 0.056640625 0.7890625
vt 0.083984375 0.828125
vt 0.001953125 0.828125
vt 0.103515625 0.552734375
vt 0.021484375 0.552734375
vt 0.03125 0.515625
vt 0.09375 0.515625
vt 0.03515625 0.9375
vt 0.0625 1
vt 0 1
vt 0.02734375 0.9375
vt 0.13671875 0.828125
vt 0.12890625 0.828125
vt 0.125 0.78125
vt 0.140625 0.78125
vt 0.140625 0.71874921875
vt 0.140625 0.75
vt 0.125 0.75
vt 0.125 0.71874921875
vt 0.125 0.71874921875
vt 0.125 0.6875
vt 0.140625 0.6875
vt 0.140625 0.71874921875
vt 0.140625 0.65625
vt 0.140625 0.6875
vt 0.125 0.6875
vt 0.125 0.65625
vt 0.1318359375 0.6328125
vt 0.1337890625 0.6328125
vt 0.140625 0.65625
vt 0.125 0.65625
vt 0.07809866693915078 0.9962694403309953
vt 0.06252633306084922 0.997551252556987
vt 0.06252633306084922 0.914222726528249
vt 0.06447287479563692 0.9140625
vt 0.056640625 0.720703125
vt 0.068359375 0.720703125
vt 0.0703125 0.765625
vt 0.0546875 0.765625
vt 0.17385720396361334 0.7888676733549965
vt 0.17774406798787112 0.7884789869525708
vt 0.18551779603638666 0.8269589407927227
vt 0.17385720396361334 0.828125
vt 0.0625 0.9517877840872482
vt 0.056941661888518944 0.953125
vt 0.03125 0.9225474870137932
vt 0.0625 0.9118497597117783
vt 0.3203125 0.78125
vt 0.3203125 0.8125
vt 0.2890625 0.8125
vt 0.2890625 0.78125
vt 0.01171875 0.927734375
vt 0.01953125 0.927734375
vt 0.03125 0.9375
vt 0 0.9375
vt 0.078125 0.6796875
vt 0.078125 0.7109375
vt 0.046875 0.7109375
vt 0.046875 0.6796875
vt 0.125 0.78125
vt 0.125 0.75
vt 0.140625 0.75
vt 0.140625 0.78125
vt 0.3125 0.90625
vt 0.28125 0.90625
vt 0.28125 0.875
vt 0.3125 0.875
vt 0.09375 0.796875
vt 0.0625 0.796875
vt 0.0625 0.765625
vt 0.09375 0.765625
vt 0.29211743190278744 0.9081187468924561
vt 0.32331523764857345 0.9063269352021401
vt 0.32807718585487766 0.9892387366568901
vt 0.29687938010909165 0.991030548347206
vt 0.37711067192047076 0.8984375
vt 0.4453125 0.9463149367317418
vt 0.35927577156530643 0.987446880170162
vt 0.3545295967137514 0.9048097136338478
vt 0.1849522930172871 0.9798845359123244
vt 0.18268198051728712 0.9117025046623244
vt 0.22971948051728713 0.9117025046623244
vt 0.23426088676728712 0.9907743796623244
vt 0.125 0.62500078125
vt 0.125 0.65625
vt 0.109375 0.65458828125
vt 0.109375 0.62599765625
vt 0.068359375 0.720703125
vt 0.109375 0.683178125
vt 0.125 0.6875
vt 0.0703125 0.765625
vt 0.109375 0.5688164062500001
vt 0.103515625 0.552734375
vt 0.09375 0.515625
vt 0.125 0.5625
vt 0.4268511288996075 0.6453229186810782
vt 0.443004939634863 0.6441004626575153
vt 0.443307734407945 0.6917815301826364
vt 0.4268511288996075 0.6952457268015143
vt 0.3696698788996075 0.6952457268015143
vt 0.3410792538996075 0.6952457268015143
vt 0.3410792538996075 0.6482082268015144
vt 0.3696698788996075 0.6482082268015144
vt 0.2733180328264458 0.6369305638994505
vt 0.31237195649972216 0.645288635143823
vt 0.31260606812748126 0.6953125
vt 0.267629765592055 0.6699006831434702
vt 0.29687938010909165 0.991030548347206
vt 0.2656800144340201 0.9928224496303463
vt 0.2609180662277159 0.9099106481755963
vt 0.29211743190278744 0.9081187468924561
vt 0.109375 0.62599765625
vt 0.109375 0.5974070312499999
vt 0.125 0.59375
vt 0.125 0.62500078125
vt 0.3696698788996075 0.6482082268015144
vt 0.39826050389960754 0.6482082268015144
vt 0.39826050389960754 0.6952457268015143
vt 0.3696698788996075 0.6952457268015143
vt 0.31237195649972216 0.645288635143823
vt 0.3410792538996075 0.6482082268015144
vt 0.3410792538996075 0.6952452636651822
vt 0.31260575331406815 0.6952452321595073
vt 0.109375 0.683178125
vt 0.109375 0.65458828125
vt 0.125 0.65625
vt 0.125 0.6875
vt 0.35927577156530643 0.987446880170162
vt 0.32807718585487766 0.9892387366568901
vt 0.32331523764857345 0.9063269352021401
vt 0.3545138233590022 0.904535078715412
vt 0.01953125 0.927734375
vt 0.01953125 0.918675
vt 0.03125 0.908909375
vt 0.03125 0.9375
vt 0.22971948051728713 0.9117025046623244
vt 0.2609180662277159 0.9099106481755963
vt 0.2656800144340201 0.9928224496303463
vt 0.23448142872359135 0.9946143061170744
vt 0.125 0.5625
vt 0.125 0.59375
vt 0.109375 0.5974070312499999
vt 0.109375 0.5688164062500001
vt 0.4268511288996075 0.6952457268015143
vt 0.39826050389960754 0.6952457268015143
vt 0.39826050389960754 0.6482082268015144
vt 0.4268511288996075 0.6452886955515142
vt 0.171875 0.828125
vt 0.140625 0.8251904622151407
vt 0.140625 0.7939943976267863
vt 0.171875 0.7969289354116456
vt 0.027262440788025265 0.65625
vt 0.05056512420268565 0.6769908500627513
vt 0.07430005921197473 0.65625
vt 0.15858147842381895 0.671875
vt 0.20860602157618105 0.671875
vt 0.1829273170992083 0.6913808570094564
vt 0.0018928683263532003 0.7890625
vt 0 0.7578125
vt 0.032246384140879 0.7578125
vt 0.033184441581339215 0.7885946284373534
vt 0.03125 0.7578125
vt 0 0.7578125
vt 0 0.734375
vt 0.03125 0.734375
vt 0.234375 0.61958125930664
vt 0.234375 0.6484375
vt 0.2109375 0.6460574192460551
vt 0.2109375 0.6172019526114514
vt 0.375 0.75
vt 0.34375 0.75
vt 0.34375 0.7265625
vt 0.375 0.7265625
vt 0.04618611947946194 0.65625
vt 0.027262531813562703 0.6393962903867723
vt 0.0742999681864373 0.6393962903867723
vt 0.16004278428644073 0.6672113277818408
vt 0.16004278428644075 0.6171875
vt 0.17589471571355927 0.6369578470430537
vt 0.140625 0.9651268077222845
vt 0.171875 0.9672214598634801
vt 0.171875 1
vt 0.14107088824685377 0.999078133007212
vt 0.3906728141451223 0.8954887366568901
vt 0.3954347623514265 0.8125769352021401
vt 0.4266325680972125 0.8143687468924561
vt 0.4218706198909083 0.897280548347206
vt 0.3594742284346935 0.893696880170162
vt 0.2734375 0.8525649367317418
vt 0.3416393280795292 0.8046875
vt 0.3642204032862486 0.8110597136338478
vt 0.4890305194827128 0.8179525046623244
vt 0.5360680194827128 0.8179525046623244
vt 0.5337977069827129 0.8861345359123244
vt 0.4844891132327128 0.8970243796623244
vt 0.015625 0.65458828125
vt 0 0.65625
vt 0 0.62500078125
vt 0.015625 0.62599765625
vt 0 0.6875
vt 0.015625 0.683178125
vt 0.056640625 0.720703125
vt 0.0546875 0.765625
vt 0.03125 0.515625
vt 0.021484375 0.552734375
vt 0.015625 0.5688164062500001
vt 0 0.5625
vt 0.322317265592055 0.8011565301826364
vt 0.322620060365137 0.7534754626575153
vt 0.3387738711003925 0.7546979186810782
vt 0.3387738711003925 0.8046207268015143
vt 0.4245457461003925 0.7575832268015144
vt 0.4245457461003925 0.8046207268015143
vt 0.3959551211003925 0.8046207268015143
vt 0.3959551211003925 0.7575832268015144
vt 0.45301893187251874 0.8046875
vt 0.45325304350027784 0.754663635143823
vt 0.49230696717355416 0.7463055638994505
vt 0.497995234407945 0.7792756831434702
vt 0.45783193377228404 0.8161606481755963
vt 0.4530699855659798 0.8990724496303463
vt 0.4218706198909083 0.897280548347206
vt 0.4266325680972125 0.8143687468924561
vt 0 0.59375
vt 0.015625 0.5974070312499999
vt 0.015625 0.62599765625
vt 0 0.62500078125
vt 0.36736449610039246 0.8046207268015143
vt 0.36736449610039246 0.7575832268015144
vt 0.3959551211003925 0.7575832268015144
vt 0.3959551211003925 0.8046207268015143
vt 0.4245457461003925 0.8046202636651822
vt 0.4245457461003925 0.7575832268015144
vt 0.45325304350027784 0.754663635143823
vt 0.45301924668593185 0.8046202321595073
vt 0 0.65625
vt 0.015625 0.65458828125
vt 0.015625 0.683178125
vt 0 0.6875
vt 0.3954347623514265 0.8125769352021401
vt 0.3906728141451223 0.8954887366568901
vt 0.3594742284346935 0.893696880170162
vt 0.3642361766409977 0.810785078715412
vt 0 0.908909375
vt 0.01171875 0.918675
vt 0.01171875 0.927734375
vt 0 0.9375
vt 0.4530699855659798 0.8990724496303463
vt 0.45783193377228404 0.8161606481755963
vt 0.4890305194827128 0.8179525046623244
vt 0.4842685712764086 0.9008643061170744
vt 0.015625 0.5974070312499999
vt 0 0.59375
vt 0 0.5625
vt 0.015625 0.5688164062500001
vt 0.36736449610039246 0.7575832268015144
vt 0.36736449610039246 0.8046207268015143
vt 0.3387738711003925 0.8046207268015143
vt 0.3387738711003925 0.7546636955515142
vt 0.20559094881339315 0.875
vt 0.23678701340174757 0.875
vt 0.23972155118660685 0.90625
vt 0.20852548659825243 0.90625
vt 0.1002141750313756 0.6717401834146604
vt 0.07947332496862441 0.6484375
vt 0.0794733249686244 0.6954751184239495
vt 0.14259082149527177 0.784399543152362
vt 0.14259082149527177 0.734375
vt 0.16209667850472823 0.7587208386753894
vt 0.21339332824023027 0.6943744425595398
vt 0.21339332824023027 0.6621280584186608
vt 0.2421875 0.664020926745014
vt 0.24171962843735342 0.6953125
vt 0.2085501929403294 0.625
vt 0.21093027369427433 0.6484375
vt 0.18207403300091435 0.6484375
vt 0.17969472630572567 0.625
vt 0.08141689519338617 0.6014000636271254
vt 0.09827060480661384 0.6203236512930246
vt 0.08141689519338616 0.6484375
vt 0.1742068361090796 0.6484375
vt 0.2242306638909204 0.6484375
vt 0.19397718315213336 0.6642894314271186
vt 0.27706069227771546 0.90625
vt 0.24428215214119559 0.90625
vt 0.2421875 0.8774696426062145
vt 0.2761388252849275 0.8779155308530682
vt 0.1060921875 0.734375
vt 0.1060921875 0.8359375
vt 0.09703281250000001 0.8359375
vt 0.09703281250000001 0.734375
vt 0.125 0.7265625
vt 0.125 0.828125
vt 0.1171875 0.828125
vt 0.1171875 0.7265625
vt 0.2623421875 0.6015625
vt 0.2623421875 0.703125
vt 0.2532828125 0.703125
vt 0.2532828125 0.6015625
vt 0.25 0.59375
vt 0.25 0.6953125
vt 0.2421875 0.6953125
vt 0.2421875 0.59375
vt 0.140625 0.50373046875
vt 0.140625 0.49591796875000005
vt 0.1484375 0.49591796875000005
vt 0.1484375 0.50373046875
vt 0.2532828125 0.8671875
vt 0.2532828125 0.703125
vt 0.2623421875 0.703125
vt 0 0.96875
vt 0 0.9609375
vt 0.0078125 0.9609375
vt 0.0078125 0.96875
vt 0.09703281250000001 1
vt 0.09703281250000001 0.8359375
vt 0.1060921875 0.8359375
vt 0.2154671875 0.84375
vt 0.1607796875 0.9375
vt 0.1451546875 0.8359375
vt 0.2154671875 0.8359375
vt 0.1171875 0.71875
vt 0.1171875 0.7890625
vt 0.109375 0.7890625
vt 0.109375 0.71875
vt 0.1439078125 0.703125
vt 0.2142203125 0.703125
vt 0.1985953125 0.8046875
vt 0.1439078125 0.7109375
vt 0.1484375 0.50373046875
vt 0.1484375 0.61226484375
vt 0.140625 0.61226484375
vt 0.140625 0.50373046875
vt 0.2974984375 0.765625
vt 0.2799203125 0.79296875
vt 0.2760140625 0.703125
vt 0.2896859375 0.703125
vt 0.1015625 0.61328125
vt 0.1015625 0.599609375
vt 0.109375 0.599609375
vt 0.109375 0.61328125
vt 0.06968906250000001 0.8359375
vt 0.0833609375 0.8359375
vt 0.07945468750000001 0.92578125
vt 0.0618765625 0.8984375
vt 0.15625 0.58653359375
vt 0.15625 0.619040625
vt 0.1484375 0.619040625
vt 0.1484375 0.58653359375
vt 0.15625 0.506384375
vt 0.15625 0.58653359375
vt 0.1484375 0.58653359375
vt 0.1484375 0.506384375
vt 0.3560921875 0.7109375
vt 0.2974984375 0.765625
vt 0.2896859375 0.703125
vt 0.3560921875 0.703125
vt 0.1015625 0.6796875
vt 0.1015625 0.61328125
vt 0.109375 0.61328125
vt 0.109375 0.6796875
vt 0.0032828125000000097 0.8359375
vt 0.06968906250000001 0.8359375
vt 0.0618765625 0.8984375
vt 0.0032828125000000097 0.84375
vt 0.2532828125 0.8671875
vt 0.1985953125 0.8046875
vt 0.2142203125 0.703125
vt 0.2532828125 0.703125
vt 0.109375 0.828125
vt 0.109375 0.7890625
vt 0.1171875 0.7890625
vt 0.1171875 0.828125
vt 0.1060921875 0.8359375
vt 0.1451546875 0.8359375
vt 0.1607796875 0.9375
vt 0.1060921875 1
vt 0.140625 0.6953125
vt 0.140625 0.61226484375
vt 0.1484375 0.61226484375
vt 0.1484375 0.6953125
vt 0.1484375 0.6953125
vt 0.1484375 0.619040625
vt 0.15625 0.619040625
vt 0.15625 0.6953125
vt 0.09703281250000001 1
vt 0.07945468750000001 0.92578125
vt 0.08336093750000001 0.8359375
vt 0.09703281250000001 0.8359375
vt 0.109375 0.5859375
vt 0.109375 0.599609375
vt 0.1015625 0.599609375
vt 0.1015625 0.5859375
vt 0.2623421875 0.703125
vt 0.2760140625 0.703125
vt 0.2799203125 0.79296875
vt 0.2623421875 0.8671875
vn 0 1 0
vn 0 1 0
vn 0 1 0
vn 1.2246467991473532e-16 0 1
vn 0 1 0
vn -1.2246467991473532e-16 0 -1
vn 0 -1 0
vn 0 -1 0
vn 0 -1 0
vn 0 -1 0
vn 0 -1 0
vn 9.216406402856728e-17 -0.658504607868518 0.7525766947068778
vn 0 1 0
vn -1.2246467991473532e-16 0 -1
vn 0 1 0
vn 1.6578184152397744e-17 0.9907949599369706 0.13537114671707892
vn 0 1 0
vn -1.657796653120712e-17 0.9907952027263839 -0.13536936970520272
vn 0 -1 0
vn 1.223942871193618e-16 0.033900902554822074 0.9994251992050073
vn -1.223942871193618e-16 -0.03390090255482196 -0.9994251992050073
vn -0.7525766947068778 -0.658504607868518 9.216406402856728e-17
vn -0.7051520736801029 -0.5090316531878244 0.4936064515760722
vn -0.9134989112062925 -0.39965577365275295 -0.07612490926719093
vn 0 1 0
vn 0 1 0
vn 0 1 0
vn 0.8152070247131558 0.5706449172992091 0.09900447070159758
vn 0.7474093186836597 0.6643638388299198 -9.153124297788479e-17
vn 0.751063982394753 0.6008511859158024 -0.27364346645390236
vn -0.7525766947068778 -0.658504607868518 9.216406402856728e-17
vn 0 1 0
vn 0.7474093186836597 0.6643638388299198 -9.153124297788479e-17
vn 0.7443491071059212 0.6616436507608188 0.09039959158377643
vn 0 1 0
vn -0.7525766947068778 -0.658504607868518 9.216406402856728e-17
vn 0 1 0
vn -0.7525766947068778 -0.658504607868518 9.216406402856728e-17
vn 0 1 0
vn 0.7474093186836597 0.6643638388299198 -9.153124297788479e-17
vn -1 0 1.2246467991473532e-16
vn 0.038110808476978356 0.03387627420175843 0.9986991360381956
vn -0.04233813118576109 -0.03387050494860877 -0.9985290539299413
vn 0.23832649208759246 0.9622455302385543 -0.13146871378828592
vn -1.2235798048609794e-16 0.041734575615686095 -0.9991287330460368
vn -1 0 1.2246467991473532e-16
vn 1.2235798048609794e-16 -0.04173457561568611 0.9991287330460368
vn 0.046899732349067406 0.04168865097694891 -0.9980292939013906
vn -0.05209737558143871 -0.04167790046515107 0.9977719258780254
vn 0.2937626204908149 0.9470795047723108 0.1293983556410368
vn 0.7525766947068778 -0.658504607868518 -9.216406402856728e-17
vn 0.7051520736801031 -0.5090316531878244 0.49360645157607197
vn 0.9134989112062925 -0.39965577365275295 -0.07612490926719115
vn 0 1 0
vn 0 1 0
vn 0 1 0
vn -0.8152070247131558 0.570644917299209 0.09900447070159778
vn -0.7474093186836597 0.6643638388299198 9.153124297788479e-17
vn -0.7510639823947532 0.6008511859158026 -0.2736434664539022
vn 0.7525766947068778 -0.658504607868518 -9.216406402856728e-17
vn 0 1 0
vn -0.7474093186836597 0.6643638388299198 9.153124297788479e-17
vn -0.7443491071059212 0.6616436507608188 0.09039959158377663
vn 0 1 0
vn 0.7525766947068778 -0.658504607868518 -9.216406402856728e-17
vn 0 1 0
vn 0.7525766947068778 -0.658504607868518 -9.216406402856728e-17
vn 0 1 0
vn -0.7474093186836597 0.6643638388299198 9.153124297788479e-17
vn 1 0 -1.2246467991473532e-16
vn -0.038110808476978106 0.03387627420175843 0.9986991360381956
vn 0.04233813118576084 -0.03387050494860877 -0.9985290539299413
vn -0.2383264920875925 0.9622455302385543 -0.13146871378828587
vn 1 0 -1.2246467991473532e-16
vn -0.04689973234906764 0.041688650976948904 -0.9980292939013904
vn 0.05209737558143895 -0.04167790046515106 0.9977719258780252
vn -0.2937626204908149 0.9470795047723108 0.12939835564103686
vn -1 0 1.2246467991473532e-16
vn 1.2246467991473532e-16 0 1
vn 1 0 -1.2246467991473532e-16
vn -1.2246467991473532e-16 0 -1
vn 1.2246467991473532e-16 0 1
vn 1 0 -1.2246467991473532e-16
vn -1.2246467991473532e-16 0 -1
vn -1 0 1.2246467991473532e-16
vn -1 0 1.2246467991473532e-16
vn 0 -1 0
vn 1 0 -1.2246467991473532e-16
vn 1.1370560075755595e-16 0.37139067635410355 0.9284766908852594
vn 1 0 -1.2246467991473532e-16
vn 0 -1 0
vn -1 0 1.2246467991473532e-16
vn -1.030146210524164e-16 0.5407579937879132 -0.8411782166428655
vn -8.974131341288327e-17 0.6804511607716387 -0.7327934346079593
vn 1 0 -1.2246467991473532e-16
vn 0 -1 0
vn -1 0 1.2246467991473532e-16
vn 1 0 -1.2246467991473532e-16
vn 0 -1 0
vn -1 0 1.2246467991473532e-16
vn 9.759675924702183e-17 0.6040610862957757 0.7969380176796484
vn -1.135824110641238e-16 0.37389566659163864 -0.9274707707006159
vn -1 0 1.2246467991473532e-16
vn 0 -1 0
vn 1 0 -1.2246467991473532e-16
usemtl m_ab5879a0-348f-1809-4541-5ed5c1185a41
f 25/1/1 59/2/1 51/3/1 17/4/1
f 51/5/2 61/6/2 27/7/2 17/8/2
f 47/9/3 13/10/3 14/11/3 48/12/3
f 13/13/4 47/14/4 46/15/4 12/16/4
f 12/17/5 46/18/5 41/19/5 7/20/5
f 8/21/6 7/22/6 41/23/6 42/24/6
f 8/25/7 42/26/7 37/27/7 3/28/7
f 18/29/8 28/30/8 62/31/8 52/32/8
f 52/33/9 58/34/9 24/35/9 18/36/9
f 4/37/10 24/38/10 58/39/10 38/40/10
f 40/41/11 6/42/11 4/43/11 38/44/11
f 39/45/12 5/46/12 6/47/12 40/48/12
f 45/49/13 11/50/13 5/51/13 39/52/13
f 50/53/14 16/54/14 11/55/14 45/56/14
f 16/57/15 50/58/15 49/59/15 15/60/15
f 68/61/16 67/62/16 33/63/16 34/64/16
f 60/65/17 26/66/17 21/67/17 55/68/17
f 31/69/18 32/70/18 66/71/18 65/72/18
f 37/73/19 62/74/19 28/75/19 3/76/19
f 66/77/20 32/78/20 27/79/20 61/80/20
f 31/81/21 65/82/21 48/83/21 14/84/21
f 18/85/22 24/86/22 23/87/22 19/88/22
f 6/89/23 5/90/23 2/91/23 4/92/23
f 7/93/24 8/94/24 3/95/24 1/96/24
f 19/97/25 23/98/25 22/99/25 20/100/25
f 11/101/26 10/102/26 2/103/26 5/104/26
f 9/105/27 12/106/27 7/107/27 1/108/27
f 14/109/28 13/110/28 12/111/28 9/112/28
f 20/113/29 22/114/29 21/115/29 17/116/29
f 16/117/30 15/118/30 10/119/30 11/120/30
f 19/121/31 29/122/31 28/123/31 18/124/31
f 20/125/32 30/126/32 29/127/32 19/128/32
f 17/129/33 27/130/33 30/131/33 20/132/33
f 15/133/34 21/134/34 22/135/34 10/136/34
f 10/137/35 22/138/35 23/139/35 2/140/35
f 2/141/36 23/142/36 24/143/36 4/144/36
f 26/145/37 25/146/37 17/147/37 21/148/37
f 3/149/38 28/150/38 29/151/38 1/152/38
f 1/153/39 29/154/39 30/155/39 9/156/39
f 9/157/40 30/158/40 27/159/40 14/160/40
f 32/161/41 31/162/41 14/163/41 27/164/41
f 27/165/42 32/166/42 30/167/42
f 14/168/43 9/169/43 31/170/43
f 32/171/44 31/172/44 9/173/44 30/174/44
f 33/175/45 67/176/45 55/177/45 21/178/45
f 34/179/46 33/180/46 21/181/46 15/182/46
f 68/183/47 34/184/47 15/185/47 49/186/47
f 33/187/48 21/188/48 22/189/48
f 10/190/49 15/191/49 34/192/49
f 34/193/50 33/194/50 22/195/50 10/196/50
f 57/197/51 58/198/51 52/199/51 53/200/51
f 36/201/52 39/202/52 40/203/52 38/204/52
f 37/205/53 42/206/53 41/207/53 35/208/53
f 56/209/54 57/210/54 53/211/54 54/212/54
f 36/213/55 44/214/55 45/215/55 39/216/55
f 41/217/56 46/218/56 43/219/56 35/220/56
f 46/221/57 47/222/57 48/223/57 43/224/57
f 55/225/58 56/226/58 54/227/58 51/228/58
f 44/229/59 49/230/59 50/231/59 45/232/59
f 62/233/60 63/234/60 53/235/60 52/236/60
f 63/237/61 64/238/61 54/239/61 53/240/61
f 64/241/62 61/242/62 51/243/62 54/244/62
f 56/245/63 55/246/63 49/247/63 44/248/63
f 57/249/64 56/250/64 44/251/64 36/252/64
f 58/253/65 57/254/65 36/255/65 38/256/65
f 51/257/66 59/258/66 60/259/66 55/260/66
f 63/261/67 62/262/67 37/263/67 35/264/67
f 64/265/68 63/266/68 35/267/68 43/268/68
f 61/269/69 64/270/69 43/271/69 48/272/69
f 48/273/70 65/274/70 66/275/70 61/276/70
f 66/277/71 61/278/71 64/279/71
f 43/280/72 48/281/72 65/282/72
f 43/283/73 65/284/73 66/285/73 64/286/73
f 55/287/74 67/288/74 68/289/74 49/290/74
f 55/291/75 67/292/75 56/293/75
f 49/294/76 44/295/76 68/296/76
f 56/297/77 67/298/77 68/299/77 44/300/77
f 26/301/78 71/302/78 74/303/78 25/304/78
f 60/305/79 72/306/79 71/307/79 26/308/79
f 59/309/80 73/310/80 72/311/80 60/312/80
f 25/313/81 74/314/81 73/315/81 59/316/81
f 75/317/82 76/318/82 77/319/82 78/320/82
f 70/321/83 72/322/83 73/323/83
f 79/324/84 80/325/84 81/326/84 82/327/84
f 69/328/85 74/329/85 71/330/85
f 75/331/86 90/332/86 89/333/86 76/334/86
f 76/335/87 89/336/87 88/337/87 77/338/87
f 77/339/88 88/340/88 87/341/88 78/342/88
f 78/343/89 87/344/89 90/345/89 75/346/89
f 84/347/90 91/348/90 94/349/90 85/350/90
f 85/351/91 94/352/91 93/353/91 86/354/91
f 86/355/92 93/356/92 92/357/92 83/358/92
f 83/359/93 92/360/93 91/361/93 84/362/93
f 82/363/94 83/364/94 84/365/94 79/366/94
f 79/367/95 84/368/95 85/369/95 80/370/95
f 80/371/96 85/372/96 86/373/96 81/374/96
f 81/375/97 86/376/97 83/377/97 82/378/97
f 70/379/98 87/380/98 88/381/98 72/382/98
f 72/383/99 88/384/99 89/385/99 71/386/99
f 71/387/100 89/388/100 90/389/100 69/390/100
f 69/391/101 90/392/101 87/393/101 70/394/101
f 70/395/102 91/396/102 92/397/102 69/398/102
f 69/399/103 92/400/103 93/401/103 74/402/103
f 74/403/104 93/404/104 94/405/104 73/406/104
f 73/407/105 94/408/105 91/409/105 70/410/105