# Made in Blockbench 4.11.2
mtllib SurfBoard.mtl

o cuboid
v 0.015625 0.265625 0.875
v 0.140625 0.265625 -0.8125
v 0.015625 0.234375 0.875
v 0.140625 0.234375 -0.8125
v 0.3125 0.296875 0
v 0.3125 0.203125 0
v 0.042187499999999996 0.2265625 -0.609375
v 0.09375 0.2109375 -0.203125
v 0.007031249999999999 0.039108676585542845 -0.5492770701313253
v 0.015625 0.023483676585542845 -0.39302707013132526
v 0.2890619432422757 0.21875010122867716 0.4062526319456059
v 0.2890619432422757 0.28124989877132284 0.4062526319456059
v 0.2890625 0.28125 -0.40625
v 0.2890625 0.21875 -0.40625
v 0.08671875 0.21875 -0.40625
v 0.014453125 0.031296176585542845 -0.4711520701313253
v 0 0.265625 -0.875
v 0 0.234375 -0.875
v 0 0.2265625 -0.609375
v 0 0.039108676585542845 -0.5492770701313253
v 0 0.031296176585542845 -0.4711520701313253
v 0 0.023483676585542845 -0.39302707013132526
v 0 0.2109375 -0.203125
v 0 0.203125 0
v 0 0.21875010122867716 0.4062526319456059
v 0 0.234375 0.875
v 0 0.265625 0.875
v 0 0.28124989877132284 0.4062526319456059
v 0 0.296875 0
v 0 0.28125 -0.40625
v -0.015625 0.265625 0.875
v -0.140625 0.265625 -0.8125
v -0.015625 0.234375 0.875
v -0.140625 0.234375 -0.8125
v -0.3125 0.296875 0
v -0.3125 0.203125 0
v -0.042187499999999996 0.2265625 -0.609375
v -0.09375 0.2109375 -0.203125
v -0.007031249999999999 0.039108676585542845 -0.5492770701313253
v -0.015625 0.023483676585542845 -0.39302707013132526
v -0.2890619432422757 0.21875010122867716 0.4062526319456059
v -0.2890619432422757 0.28124989877132284 0.4062526319456059
v -0.2890625 0.28125 -0.40625
v -0.2890625 0.21875 -0.40625
v -0.08671875 0.21875 -0.40625
v -0.014453125 0.031296176585542845 -0.4711520701313253
vt 0.306640625 0.882748297163815
vt 0.234375 0.8827482971638151
vt 0.234375 0.781110797163815
vt 0.3125 0.781110797163815
vt 0 0.953125
vt 0.0078125 0.953125
vt 0.0078125 0.972753125
vt 0.0005859374999999997 0.972753125
vt 0.0234375 0.984375
vt 0.01953125 0.984375
vt 0.01953125 0.9765625
vt 0.0234375 0.9765625
vt 0.015625 0.984375
vt 0.046875 0.984375
vt 0.046875 1
vt 0.015625 1
vt 0.306640625 0.679471734663815
vt 0.234375 0.679471734663815
vt 0.234375 0.562220172163815
vt 0.23828125 0.562220172163815
vt 0.0742240303361906 0.5546875
vt 0.07813028033505404 0.5546875942304477
vt 0.07812745183855443 0.6719407191963317
vt 0.00586182685958081 0.6719389759330511
vt 2.2731205806536536e-11 0.7735778970578068
vt 0.078125 0.7735797816667589
vt 0.07812377409956887 0.8243985316519726
vt 0.05468627410638824 0.8243979662692871
vt 0.0675744473017753 0.9260357772001917
vt 0.07812132230177529 0.9260357772001917
vt 0.07812132230177529 0.9924701522001917
vt 0.04296507230177529 0.9768514022001917
vt 0.359375 0.8088968750000001
vt 0.3359375 0.8088968750000001
vt 0.3359375 0.7421875
vt 0.34375 0.7421875
vt 0.070703125 0.8359375
vt 0.07421875 0.8359375
vt 0.07421875 0.8851515625
vt 0.063671875 0.8851515625
vt 0.3125 0.781110797163815
vt 0.234375 0.781110797163815
vt 0.234375 0.679471734663815
vt 0.306640625 0.679471734663815
vt 0.00586182685958081 0.6719389759330511
vt 0.07812745183855445 0.6719407191963317
vt 0.078125 0.7735797816667589
vt 2.2731205806536536e-11 0.7735778970578068
vt 0.26954200568678743 0.9843841232118163
vt 0.23438194939912071 1
vt 0.23438287818280634 0.8827482971638151
vt 0.306640625 0.8827482971638151
vt 0.0005859374999999997 0.972753125
vt 0.0078125 0.972753125
vt 0.0078125 0.9923828125
vt 0.004296875 0.9923828125
vt 0.51865 0.9765625
vt 0.62038125 0.98046875
vt 0.62038125 0.99609375
vt 0.51865 1
vt 0.4169171875 0.98046875
vt 0.4169171875 0.99609375
vt 0.28125 0.9921875
vt 0.28125 0.984375
vt 0.05468627410638824 0.8243979662692871
vt 0.05644286070544564 0.8752167586582023
vt 0.005856923220164095 0.8752155383739058
vt 2.2731233562112152e-11 0.7735778970578068
vt 0.3608109375 0.8828125
vt 0.38034375 0.88484375
vt 0.363296875 0.93360625
vt 0.3125 0.931390625
vt 0.4169171875 0.99609375
vt 0.4169171875 0.98046875
vt 0.51865 0.9765625
vt 0.51865 1
vt 0.7285109375000001 0.9921875
vt 0.62038125 0.99609375
vt 0.62038125 0.98046875
vt 0.7285109375000001 0.984375
vt 0.042963846408504466 0.9768539335335856
vt 0.005856923220164095 0.8752155383739058
vt 0.056442860705445644 0.8752167586582023
vt 0.0675744473017753 0.9260357772001917
vt 0.41531959975924326 0.9334735653888083
vt 0.363296875 0.93360625
vt 0.38034365761166256 0.8848440142763736
vt 0.4002787951695912 0.8860913248674152
vt 0.234375 0.781110797163815
vt 0.234375 0.8827482971638151
vt 0.306640625 0.882748297163815
vt 0.3125 0.781110797163815
vt 0.0078125 0.972753125
vt 0.0078125 0.953125
vt 0 0.953125
vt 0.0005859374999999997 0.972753125
vt 0.01953125 0.9765625
vt 0.01953125 0.984375
vt 0.0234375 0.984375
vt 0.0234375 0.9765625
vt 0.046875 1
vt 0.046875 0.984375
vt 0.015625 0.984375
vt 0.015625 1
vt 0.234375 0.562220172163815
vt 0.234375 0.679471734663815
vt 0.306640625 0.679471734663815
vt 0.23828125 0.562220172163815
vt 0.07812745183855443 0.6719407191963317
vt 0.07813028033505404 0.5546875942304477
vt 0.0742240303361906 0.5546875
vt 0.00586182685958081 0.6719389759330511
vt 0.07812377409956887 0.8243985316519726
vt 0.078125 0.7735797816667589
vt 2.2731205806536536e-11 0.7735778970578068
vt 0.05468627410638824 0.8243979662692871
vt 0.07812132230177529 0.9924701522001917
vt 0.07812132230177529 0.9260357772001917
vt 0.0675744473017753 0.9260357772001917
vt 0.04296507230177529 0.9768514022001917
vt 0.3359375 0.7421875
vt 0.3359375 0.8088968750000001
vt 0.359375 0.8088968750000001
vt 0.34375 0.7421875
vt 0.07421875 0.8851515625
vt 0.07421875 0.8359375
vt 0.070703125 0.8359375
vt 0.063671875 0.8851515625
vt 0.234375 0.679471734663815
vt 0.234375 0.781110797163815
vt 0.3125 0.781110797163815
vt 0.306640625 0.679471734663815
vt 0.078125 0.7735797816667589
vt 0.07812745183855445 0.6719407191963317
vt 0.00586182685958081 0.6719389759330511
vt 2.2731205806536536e-11 0.7735778970578068
vt 0.23438287818280634 0.8827482971638151
vt 0.23438194939912071 1
vt 0.26954200568678743 0.9843841232118163
vt 0.306640625 0.8827482971638151
vt 0.0078125 0.9923828125
vt 0.0078125 0.972753125
vt 0.0005859374999999997 0.972753125
vt 0.004296875 0.9923828125
vt 0.62038125 0.99609375
vt 0.62038125 0.98046875
vt 0.51865 0.9765625
vt 0.51865 1
vt 0.28125 0.9921875
vt 0.4169171875 0.99609375
vt 0.4169171875 0.98046875
vt 0.28125 0.984375
vt 0.005856923220164095 0.8752155383739058
vt 0.05644286070544564 0.8752167586582023
vt 0.05468627410638824 0.8243979662692871
vt 2.2731233562112152e-11 0.7735778970578068
vt 0.363296875 0.93360625
vt 0.38034375 0.88484375
vt 0.3608109375 0.8828125
vt 0.3125 0.931390625
vt 0.51865 0.9765625
vt 0.4169171875 0.98046875
vt 0.4169171875 0.99609375
vt 0.51865 1
vt 0.62038125 0.98046875
vt 0.62038125 0.99609375
vt 0.7285109375000001 0.9921875
vt 0.7285109375000001 0.984375
vt 0.056442860705445644 0.8752167586582023
vt 0.005856923220164095 0.8752155383739058
vt 0.042963846408504466 0.9768539335335856
vt 0.0675744473017753 0.9260357772001917
vt 0.38034365761166256 0.8848440142763736
vt 0.363296875 0.93360625
vt 0.41531959975924326 0.9334735653888083
vt 0.4002787951695912 0.8860913248674152
vn 0 0.9992611746313144 -0.0384331221012044
vn 0 -0.9950371902099892 -0.09950371902099885
vn 0 0 1
vn 0.40613846605344767 0 -0.9138115486202573
vn 0 0.9994449079373597 0.0333148014864655
vn 0 -0.9994449079373597 0.0333148014864655
vn 0 -0.9992611746313144 -0.0384331221012044
vn 0 -0.9995677544643532 -0.02939905160189274
vn 0 -0.7116794400343477 0.7025043591554415
vn 0 -0.30529504301391636 -0.9522578100026963
vn 0 0.9992611746313143 0.03843312210120443
vn 0 -0.9992611746313143 0.03843312210120443
vn 0.014804968418757471 0.9993353682661293 -0.03331117894220431
vn 0 -0.9950371902099892 -0.09950371902099893
vn 0.998339941675609 0 -0.05759653509666975
vn 0.8637781160853829 0 0.50387237091548
vn 0 -0.9992611746313143 -0.03843312210120439
vn 0.9374899381089407 -0.3446129308318622 -0.04852364215482029
vn 0.998339884458708 0 0.05759752684771799
vn 0.9392649237907383 0 -0.343192952923539
vn 0 -0.9992611746313143 -0.03843312210120439
vn 0.9338429068545888 -0.2853251516783004 -0.21570114310574834
vn 0 0.9992611746313144 -0.0384331221012044
vn 0 -0.9950371902099892 -0.09950371902099885
vn 0 0 1
vn -0.40613846605344767 0 -0.9138115486202573
vn 0 0.9994449079373597 0.0333148014864655
vn 0 -0.9994449079373597 0.0333148014864655
vn 0 -0.9992611746313144 -0.0384331221012044
vn 0 -0.9995677544643532 -0.02939905160189274
vn 0 -0.7116794400343477 0.7025043591554415
vn 0 -0.30529504301391636 -0.9522578100026963
vn 0 0.9992611746313143 0.03843312210120443
vn 0 -0.9992611746313143 0.03843312210120443
vn -0.014804968418757471 0.9993353682661293 -0.03331117894220431
vn 0 -0.9950371902099892 -0.09950371902099893
vn -0.998339941675609 0 -0.05759653509666975
vn -0.8637781160853829 0 0.50387237091548
vn 0 -0.9992611746313143 -0.03843312210120439
vn -0.9374899381089407 -0.3446129308318622 -0.04852364215482034
vn -0.998339884458708 0 0.05759752684771799
vn -0.9392649237907383 0 -0.343192952923539
vn 0 -0.9992611746313143 -0.03843312210120439
vn -0.9338429068545888 -0.2853251516783004 -0.21570114310574837
usemtl m_f12e329f-eece-c026-59c7-899c7ddd8f8e
f 13/1/1 30/2/1 29/3/1 5/4/1
f 10/5/2 22/6/2 21/7/2 16/8/2
f 1/9/3 27/10/3 26/11/3 3/12/3
f 4/13/4 18/14/4 17/15/4 2/16/4
f 12/17/5 28/18/5 27/19/5 1/20/5
f 3/21/6 26/22/6 25/23/6 11/24/6
f 6/25/7 24/26/7 23/27/7 8/28/7
f 7/29/8 19/30/8 18/31/8 4/32/8
f 8/33/9 23/34/9 22/35/9 10/36/9
f 9/37/10 20/38/10 19/39/10 7/40/10
f 5/41/11 29/42/11 28/43/11 12/44/11
f 11/45/12 25/46/12 24/47/12 6/48/12
f 2/49/13 17/50/13 30/51/13 13/52/13
f 16/53/14 21/54/14 20/55/14 9/56/14
f 6/57/15 14/58/15 13/59/15 5/60/15
f 11/61/16 12/62/16 1/63/16 3/64/16
f 8/65/17 15/66/17 14/67/17 6/68/17
f 10/69/18 16/70/18 15/71/18 8/72/18
f 12/73/19 11/74/19 6/75/19 5/76/19
f 2/77/20 13/78/20 14/79/20 4/80/20
f 4/81/21 14/82/21 15/83/21 7/84/21
f 7/85/22 15/86/22 16/87/22 9/88/22
f 29/89/23 30/90/23 43/91/23 35/92/23
f 21/93/24 22/94/24 40/95/24 46/96/24
f 26/97/25 27/98/25 31/99/25 33/100/25
f 17/101/26 18/102/26 34/103/26 32/104/26
f 27/105/27 28/106/27 42/107/27 31/108/27
f 25/109/28 26/110/28 33/111/28 41/112/28
f 23/113/29 24/114/29 36/115/29 38/116/29
f 18/117/30 19/118/30 37/119/30 34/120/30
f 22/121/31 23/122/31 38/123/31 40/124/31
f 19/125/32 20/126/32 39/127/32 37/128/32
f 28/129/33 29/130/33 35/131/33 42/132/33
f 24/133/34 25/134/34 41/135/34 36/136/34
f 30/137/35 17/138/35 32/139/35 43/140/35
f 20/141/36 21/142/36 46/143/36 39/144/36
f 43/145/37 44/146/37 36/147/37 35/148/37
f 31/149/38 42/150/38 41/151/38 33/152/38
f 44/153/39 45/154/39 38/155/39 36/156/39
f 45/157/40 46/158/40 40/159/40 38/160/40
f 36/161/41 41/162/41 42/163/41 35/164/41
f 44/165/42 43/166/42 32/167/42 34/168/42
f 45/169/43 44/170/43 34/171/43 37/172/43
f 46/173/44 45/174/44 37/175/44 39/176/44